<svg width="1427" height="137" viewBox="0 0 1427 137" fill="none" xmlns="http://www.w3.org/2000/svg">
<path d="M1.00486 128.133L-13 124.586V0H1427V135.67L1415 133.453L1404.49 135.67H1362.48L1346.97 133.453H1326.97L1318.96 130.35L1304.96 133.453H1293.95L1283.95 130.35H1269.95L1258.94 133.453L1249.94 130.35L1233.93 129.463L1214.93 130.35L1199.42 129.463L1183.92 124.586L1154.91 130.35L1142.4 129.463H1115.39L1107.89 128.133L1097.39 130.35H1083.38L1074.88 133.453H1064.87L1052.87 130.35L1034.36 137L1016.36 133.453L996.851 137L981.845 133.453H969.341H948.834L941.331 130.35H926.826L906.319 133.453H898.817L893.315 130.35H878.31L865.805 129.463L864.305 130.35L858.803 127.689L834.794 130.35H829.292H816.788L804.284 133.453H790.279H767.771C760.569 130.97 748.098 132.419 742.762 133.453C736.76 132.419 724.256 130.35 722.255 130.35H713.752C712.952 130.35 707.75 132.419 705.249 133.453L678.24 128.133L671.738 130.35L650.23 128.133V131.68L619.72 128.133H605.215H595.711L582.707 123.256H541.192L527.688 128.133H519.185H503.179H493.676C490.175 126.507 482.472 123.256 479.671 123.256C476.87 123.256 468.501 126.507 464.666 128.133H445.659C442.325 125.029 433.455 119.709 424.652 123.256C415.849 126.803 403.311 127.985 398.143 128.133L391.641 132.566C388.806 131.088 382.237 128.133 378.636 128.133C375.035 128.133 369.8 131.088 367.632 132.566C366.298 133.896 360.83 135.759 349.626 132.566C338.422 129.374 326.618 131.236 322.116 132.566H310.612H300.109H294.107L268.598 128.133H242.089H230.084L216.08 132.566H190.071H168.563H150.057L124.548 128.133L118.546 136.557H105.541L82.033 132.566H67.0278H48.5214C45.3203 132.566 32.8493 129.611 27.0139 128.133L9.50782 124.586L1.00486 121.482V128.133Z" fill="white"/>
</svg>
