<svg width="14" height="12" viewBox="0 0 14 12" fill="none" xmlns="http://www.w3.org/2000/svg">
<path d="M1.66665 11.3334C1.29998 11.3334 0.985981 11.2027 0.724647 10.9414C0.463314 10.68 0.33287 10.3662 0.333314 10V2.00002C0.333314 1.63335 0.463981 1.31935 0.725314 1.05802C0.986647 0.796688 1.30043 0.666244 1.66665 0.666688H12.3333C12.7 0.666688 13.014 0.797355 13.2753 1.05869C13.5366 1.32002 13.6671 1.6338 13.6666 2.00002V10C13.6666 10.3667 13.536 10.6807 13.2746 10.942C13.0133 11.2034 12.6995 11.3338 12.3333 11.3334H1.66665ZM6.99998 6.55002C7.05554 6.55002 7.11398 6.54158 7.17531 6.52469C7.23665 6.5078 7.29487 6.48291 7.34998 6.45002L12.0666 3.50002C12.1555 3.44447 12.2222 3.37491 12.2666 3.29135C12.3111 3.2078 12.3333 3.11624 12.3333 3.01669C12.3333 2.79447 12.2389 2.6278 12.05 2.51669C11.8611 2.40558 11.6666 2.41113 11.4666 2.53335L6.99998 5.33335L2.53331 2.53335C2.33331 2.41113 2.13887 2.40847 1.94998 2.52535C1.76109 2.64224 1.66665 2.80602 1.66665 3.01669C1.66665 3.1278 1.68887 3.22513 1.73331 3.30869C1.77776 3.39224 1.84443 3.45602 1.93331 3.50002L6.64998 6.45002C6.70554 6.48335 6.76398 6.50847 6.82531 6.52535C6.88665 6.54224 6.94487 6.55047 6.99998 6.55002Z" fill="#47A15E"/>
</svg>
