<svg width="14" height="14" viewBox="0 0 14 14" fill="none" xmlns="http://www.w3.org/2000/svg">
<path d="M13.6667 9.79331C13.6667 12.22 12.22 13.6666 9.79334 13.6666H9.00001C8.63334 13.6666 8.33334 13.3666 8.33334 13V9.15331C8.33334 8.97331 8.48001 8.81998 8.66001 8.81998L9.83334 8.79998C9.92668 8.79331 10.0067 8.72665 10.0267 8.63331L10.26 7.35998C10.2645 7.33112 10.2628 7.30162 10.2548 7.27351C10.2468 7.24541 10.2328 7.21937 10.2138 7.19719C10.1948 7.175 10.1712 7.15721 10.1447 7.14503C10.1181 7.13285 10.0892 7.12658 10.06 7.12665L8.64001 7.14665C8.45334 7.14665 8.30668 6.99998 8.30001 6.81998L8.27334 5.18665C8.27334 5.07998 8.36001 4.98665 8.47334 4.98665L10.0733 4.95998C10.1867 4.95998 10.2733 4.87331 10.2733 4.75998L10.2467 3.15998C10.2467 3.04665 10.16 2.95998 10.0467 2.95998L8.24668 2.98665C7.98392 2.99064 7.72453 3.04644 7.48338 3.15086C7.24222 3.25528 7.02404 3.40626 6.84135 3.59515C6.65865 3.78404 6.51502 4.00713 6.4187 4.25163C6.32237 4.49613 6.27524 4.75723 6.28001 5.01998L6.31334 6.85331C6.32001 7.03998 6.17334 7.18665 5.98668 7.19331L5.18668 7.20665C5.07334 7.20665 4.98668 7.29331 4.98668 7.40665L5.00668 8.67331C5.00668 8.78665 5.09334 8.87331 5.20668 8.87331L6.00668 8.85998C6.19334 8.85998 6.34001 9.00665 6.34668 9.18665L6.40668 12.9866C6.41334 13.36 6.11334 13.6666 5.74001 13.6666H4.20668C1.78001 13.6666 0.333344 12.22 0.333344 9.78665V4.20665C0.333344 1.77998 1.78001 0.333313 4.20668 0.333313H9.79334C12.22 0.333313 13.6667 1.77998 13.6667 4.20665V9.79331Z" fill="#797979"/>
</svg>
