<svg width="14" height="14" viewBox="0 0 14 14" fill="none" xmlns="http://www.w3.org/2000/svg">
<path d="M11.8519 0C12.2448 0 12.6216 0.156084 12.8994 0.433916C13.1772 0.711747 13.3333 1.08857 13.3333 1.48148V11.8519C13.3333 12.2448 13.1772 12.6216 12.8994 12.8994C12.6216 13.1772 12.2448 13.3333 11.8519 13.3333H1.48148C1.08857 13.3333 0.711747 13.1772 0.433916 12.8994C0.156084 12.6216 0 12.2448 0 11.8519V1.48148C0 1.08857 0.156084 0.711747 0.433916 0.433916C0.711747 0.156084 1.08857 0 1.48148 0H11.8519ZM11.4815 11.4815V7.55556C11.4815 6.91511 11.2271 6.30089 10.7742 5.84802C10.3213 5.39516 9.70712 5.14074 9.06667 5.14074C8.43704 5.14074 7.7037 5.52593 7.34815 6.1037V5.28148H5.28148V11.4815H7.34815V7.82963C7.34815 7.25926 7.80741 6.79259 8.37778 6.79259C8.65282 6.79259 8.91659 6.90185 9.11107 7.09633C9.30556 7.29082 9.41481 7.55459 9.41481 7.82963V11.4815H11.4815ZM2.87407 4.11852C3.20412 4.11852 3.52065 3.98741 3.75403 3.75403C3.98741 3.52065 4.11852 3.20412 4.11852 2.87407C4.11852 2.18519 3.56296 1.62222 2.87407 1.62222C2.54206 1.62222 2.22365 1.75411 1.98888 1.98888C1.75411 2.22365 1.62222 2.54206 1.62222 2.87407C1.62222 3.56296 2.18519 4.11852 2.87407 4.11852ZM3.9037 11.4815V5.28148H1.85185V11.4815H3.9037Z" fill="#797979"/>
</svg>
