<svg width="14" height="14" viewBox="0 0 14 14" fill="none" xmlns="http://www.w3.org/2000/svg">
<path d="M13.5833 5.92613C13.5833 7.38218 12.9826 8.71669 11.8913 9.68225C10.8674 10.5886 9.47681 11.1087 8.07609 11.1087C6.95652 11.1087 6.13551 10.8508 5.54783 10.5343L4.86449 13.0059C4.8393 13.1013 4.79212 13.1916 4.72568 13.2715C4.65925 13.3514 4.57488 13.4192 4.47745 13.4711C4.38002 13.5231 4.27147 13.558 4.15807 13.574C4.04467 13.59 3.92867 13.5867 3.81679 13.5642C3.70491 13.5418 3.59936 13.5007 3.50624 13.4433C3.41313 13.386 3.3343 13.3134 3.27432 13.23C3.21433 13.1465 3.17438 13.0537 3.15677 12.957C3.13917 12.8603 3.14425 12.7616 3.17174 12.6665L5.49058 4.27574C5.51578 4.18025 5.56295 4.08997 5.62939 4.01011C5.69582 3.93024 5.78019 3.86239 5.87762 3.81046C5.97505 3.75854 6.08361 3.72358 6.19701 3.7076C6.3104 3.69162 6.4264 3.69494 6.53828 3.71736C6.65017 3.73979 6.75572 3.78088 6.84883 3.83826C6.94194 3.89564 7.02077 3.96817 7.08076 4.05165C7.14074 4.13513 7.18069 4.22791 7.1983 4.32461C7.21591 4.42132 7.21082 4.52005 7.18333 4.61507L5.9913 8.92954C6.2442 9.18744 6.8558 9.62795 8.07609 9.62795C9.92826 9.62795 11.8442 8.24286 11.8442 5.92613C11.8438 5.28281 11.6697 4.64818 11.3352 4.0713C11.0008 3.49443 10.515 2.99077 9.91543 2.59926C9.31587 2.20775 8.61859 1.93888 7.8775 1.81344C7.13641 1.68799 6.37137 1.70933 5.64152 1.87581C4.91166 2.04229 4.23655 2.34945 3.66838 2.77354C3.10021 3.19763 2.65419 3.72728 2.36482 4.32156C2.07544 4.91583 1.95046 5.55881 1.99954 6.20078C2.04861 6.84274 2.27042 7.4665 2.64783 8.02383C2.75435 8.19328 2.7793 8.39136 2.71741 8.57619C2.65552 8.76102 2.51164 8.91811 2.31618 9.01426C2.12072 9.11041 1.88901 9.13807 1.67003 9.09141C1.45105 9.04474 1.26197 8.9274 1.14275 8.76419C0.631604 8.01019 0.331013 7.16617 0.264234 6.29744C0.197454 5.4287 0.366275 4.55853 0.757638 3.75423C1.149 2.94993 1.75242 2.23306 2.52121 1.65906C3.29001 1.08506 4.20358 0.669327 5.19126 0.444008C6.17894 0.218689 7.21426 0.189826 8.21713 0.359653C9.22001 0.52948 10.1636 0.893444 10.9748 1.42339C11.7861 1.95334 12.4433 2.63507 12.8956 3.41585C13.3479 4.19663 13.5832 5.05554 13.5833 5.92613Z" fill="#797979"/>
</svg>
