<svg width="14" height="12" viewBox="0 0 14 12" fill="none" xmlns="http://www.w3.org/2000/svg">
<path d="M13.9733 2.00002C13.46 2.23335 12.9067 2.38669 12.3333 2.46002C12.92 2.10669 13.3733 1.54669 13.5867 0.873354C13.0333 1.20669 12.42 1.44002 11.7733 1.57335C11.2467 1.00002 10.5067 0.666687 9.66667 0.666687C8.10001 0.666687 6.82001 1.94669 6.82001 3.52669C6.82001 3.75335 6.84667 3.97335 6.89334 4.18002C4.52001 4.06002 2.40667 2.92002 1.00001 1.19335C0.753339 1.61335 0.613339 2.10669 0.613339 2.62669C0.613339 3.62002 1.11334 4.50002 1.88667 5.00002C1.41334 5.00002 0.973339 4.86669 0.586673 4.66669V4.68669C0.586673 6.07335 1.57334 7.23335 2.88001 7.49335C2.46049 7.60816 2.02007 7.62413 1.59334 7.54002C1.77441 8.10834 2.12903 8.60563 2.60735 8.96197C3.08567 9.31832 3.66364 9.51581 4.26001 9.52669C3.24909 10.327 1.996 10.7596 0.706672 10.7534C0.480006 10.7534 0.253339 10.74 0.0266724 10.7134C1.29334 11.5267 2.80001 12 4.41334 12C9.66667 12 12.5533 7.64002 12.5533 3.86002C12.5533 3.73335 12.5533 3.61335 12.5467 3.48669C13.1067 3.08669 13.5867 2.58002 13.9733 2.00002Z" fill="#797979"/>
</svg>
